<?xml version="1.0" encoding="UTF-8" standalone="no"?>
<svg
   xmlns:dc="http://purl.org/dc/elements/1.1/"
   xmlns:cc="http://creativecommons.org/ns#"
   xmlns:rdf="http://www.w3.org/1999/02/22-rdf-syntax-ns#"
   xmlns:svg="http://www.w3.org/2000/svg"
   xmlns="http://www.w3.org/2000/svg"
   id="svg286"
   height="150.53mm"
   width="316.47mm"
   version="1.0">
  <metadata
     id="metadata290">
    <rdf:RDF>
      <cc:Work
         rdf:about="">
        <dc:format>image/svg+xml</dc:format>
        <dc:type
           rdf:resource="http://purl.org/dc/dcmitype/StillImage" />
      </cc:Work>
    </rdf:RDF>
  </metadata>
  <defs
     id="defs18">
    <clipPath
       id="clipEmfPath1"
       clipPathUnits="userSpaceOnUse">
      <path
         id="path2"
         d="M 82,51 L 1047,51 L 1047,73 L 82,73 z" />
    </clipPath>
    <clipPath
       id="clipEmfPath2"
       clipPathUnits="userSpaceOnUse">
      <path
         id="path5"
         d="M 82,503 L 1047,503 L 1047,545 L 82,545 z" />
    </clipPath>
    <clipPath
       id="clipEmfPath3"
       clipPathUnits="userSpaceOnUse">
      <path
         id="path8"
         d="M -1,71 L 84,71 L 84,505 L -1,505 z" />
    </clipPath>
    <clipPath
       id="clipEmfPath4"
       clipPathUnits="userSpaceOnUse">
      <path
         id="path11"
         d="M 83,72 L 1046,72 L 1046,504 L 83,504 z" />
    </clipPath>
    <clipPath
       id="clipEmfPath5"
       clipPathUnits="userSpaceOnUse">
      <path
         id="path14"
         d="M 83,72 L 1047,72 L 1047,505 L 83,505 z" />
    </clipPath>
    <pattern
       y="0"
       x="0"
       height="6"
       width="6"
       patternUnits="userSpaceOnUse"
       id="EMFhbasepattern" />
  </defs>
  <path
     id="path20"
     d="  M 0,0   L 0,569   L 1198,569   L 1198,0   L 0,0   z "
     style="fill:#ffffff;fill-rule:evenodd;fill-opacity:1;stroke:none;" />
  <path
     id="path22"
     d="  M 0,52   L 0,544   L 1046,544   L 1046,52   L 0,52   z "
     style="fill:#ffffff;fill-rule:evenodd;fill-opacity:1;stroke:none;" />
  <g
     id="g30"
     clip-path="url(#clipEmfPath1)">
    <text
       id="text28"
       y="0.000000"
       x="0.000000"
       transform="matrix(1.000000,-0.000000,0.000000,1.000000,533.000000,69.000000)"
       style="font-size:20.000000px;font-style:normal;font-variant:normal;font-weight:400;font-stretch:Normal;line-height:125.000000%;letter-spacing:0px;word-spacing:0px;fill:#000000;fill-opacity:1;stroke:none;font-family:Microsoft Sans Serif;text-align:start;text-anchor:start;"
       xml:space="preserve"><tspan
         id="tspan26"
         y="0.000000"
         x="0.000000"><tspan
           id="tspan24"
           style="fill:#000000;font-size:20.000000px;font-style:normal;font-variant:normal;font-weight:400;font-stretch:Normal;font-family:Microsoft Sans Serif;"
           dy="0.000000"
           dx="0.000000">Region</tspan></tspan></text>
  </g>
  <path
     id="path32"
     d="  M 83,504   L 83,509  "
     clip-path="url(#clipEmfPath2)"
     style="fill:none;stroke:#f5f5f5;stroke-width:1px;stroke-linecap:butt;stroke-linejoin:bevel;stroke-miterlimit:4;stroke-dasharray:none;stroke-opacity:1;" />
  <path
     id="path34"
     d="  M 243,504   L 243,509  "
     clip-path="url(#clipEmfPath2)"
     style="fill:none;stroke:#f5f5f5;stroke-width:1px;stroke-linecap:butt;stroke-linejoin:bevel;stroke-miterlimit:4;stroke-dasharray:none;stroke-opacity:1;" />
  <path
     id="path36"
     d="  M 404,504   L 404,509  "
     clip-path="url(#clipEmfPath2)"
     style="fill:none;stroke:#f5f5f5;stroke-width:1px;stroke-linecap:butt;stroke-linejoin:bevel;stroke-miterlimit:4;stroke-dasharray:none;stroke-opacity:1;" />
  <path
     id="path38"
     d="  M 564,504   L 564,509  "
     clip-path="url(#clipEmfPath2)"
     style="fill:none;stroke:#f5f5f5;stroke-width:1px;stroke-linecap:butt;stroke-linejoin:bevel;stroke-miterlimit:4;stroke-dasharray:none;stroke-opacity:1;" />
  <path
     id="path40"
     d="  M 725,504   L 725,509  "
     clip-path="url(#clipEmfPath2)"
     style="fill:none;stroke:#f5f5f5;stroke-width:1px;stroke-linecap:butt;stroke-linejoin:bevel;stroke-miterlimit:4;stroke-dasharray:none;stroke-opacity:1;" />
  <path
     id="path42"
     d="  M 885,504   L 885,509  "
     clip-path="url(#clipEmfPath2)"
     style="fill:none;stroke:#f5f5f5;stroke-width:1px;stroke-linecap:butt;stroke-linejoin:bevel;stroke-miterlimit:4;stroke-dasharray:none;stroke-opacity:1;" />
  <path
     id="path44"
     d="  M 1046,504   L 1046,509  "
     clip-path="url(#clipEmfPath2)"
     style="fill:none;stroke:#f5f5f5;stroke-width:1px;stroke-linecap:butt;stroke-linejoin:bevel;stroke-miterlimit:4;stroke-dasharray:none;stroke-opacity:1;" />
  <text
     id="text60"
     y="0.000000"
     x="0.000000"
     transform="matrix(1.000000,-0.000000,0.000000,1.000000,93.000000,526.000000)"
     style="font-size:20.000000px;font-style:normal;font-variant:normal;font-weight:700;font-stretch:Normal;line-height:125.000000%;letter-spacing:0px;word-spacing:0px;fill:#000000;fill-opacity:1;stroke:none;font-family:Microsoft Sans Serif;text-align:start;text-anchor:start;"
     xml:space="preserve"><tspan
       id="tspan58"
       y="0.000000"
       x="0.000000"><tspan
         id="tspan46"
         style="fill:#000000;font-size:20.000000px;font-style:normal;font-variant:normal;font-weight:700;font-stretch:Normal;font-family:Microsoft Sans Serif;"
         dy="0.000000"
         dx="0.000000">Ashanti Region</tspan><tspan
         id="tspan48"
         style="fill:#000000;font-size:20.000000px;font-style:normal;font-variant:normal;font-weight:700;font-stretch:Normal;font-family:Microsoft Sans Serif;"
         dy="0.000000"
         dx="0.000000">Central Region</tspan><tspan
         id="tspan50"
         style="fill:#000000;font-size:20.000000px;font-style:normal;font-variant:normal;font-weight:700;font-stretch:Normal;font-family:Microsoft Sans Serif;"
         dy="0.000000"
         dx="0.000000">Eastern Region</tspan><tspan
         id="tspan52"
         style="fill:#000000;font-size:20.000000px;font-style:normal;font-variant:normal;font-weight:700;font-stretch:Normal;font-family:Microsoft Sans Serif;"
         dy="0.000000"
         dx="0.000000">Greater Accra ..</tspan><tspan
         id="tspan54"
         style="fill:#000000;font-size:20.000000px;font-style:normal;font-variant:normal;font-weight:700;font-stretch:Normal;font-family:Microsoft Sans Serif;"
         dy="0.000000"
         dx="-2.998047">Volta Region</tspan><tspan
         id="tspan56"
         style="fill:#000000;font-size:20.000000px;font-style:normal;font-variant:normal;font-weight:700;font-stretch:Normal;font-family:Microsoft Sans Serif;"
         dy="0.000000"
         dx="2.884766">Western Region</tspan></tspan></text>
  <path
     id="path62"
     d="  M 78,504   L 83,504  "
     clip-path="url(#clipEmfPath3)"
     style="fill:none;stroke:#f5f5f5;stroke-width:1px;stroke-linecap:butt;stroke-linejoin:bevel;stroke-miterlimit:4;stroke-dasharray:none;stroke-opacity:1;" />
  <path
     id="path64"
     d="  M 78,431   L 83,431  "
     clip-path="url(#clipEmfPath3)"
     style="fill:none;stroke:#f5f5f5;stroke-width:1px;stroke-linecap:butt;stroke-linejoin:bevel;stroke-miterlimit:4;stroke-dasharray:none;stroke-opacity:1;" />
  <path
     id="path66"
     d="  M 78,358   L 83,358  "
     clip-path="url(#clipEmfPath3)"
     style="fill:none;stroke:#f5f5f5;stroke-width:1px;stroke-linecap:butt;stroke-linejoin:bevel;stroke-miterlimit:4;stroke-dasharray:none;stroke-opacity:1;" />
  <path
     id="path68"
     d="  M 78,285   L 83,285  "
     clip-path="url(#clipEmfPath3)"
     style="fill:none;stroke:#f5f5f5;stroke-width:1px;stroke-linecap:butt;stroke-linejoin:bevel;stroke-miterlimit:4;stroke-dasharray:none;stroke-opacity:1;" />
  <path
     id="path70"
     d="  M 78,212   L 83,212  "
     clip-path="url(#clipEmfPath3)"
     style="fill:none;stroke:#f5f5f5;stroke-width:1px;stroke-linecap:butt;stroke-linejoin:bevel;stroke-miterlimit:4;stroke-dasharray:none;stroke-opacity:1;" />
  <path
     id="path72"
     d="  M 78,139   L 83,139  "
     clip-path="url(#clipEmfPath3)"
     style="fill:none;stroke:#f5f5f5;stroke-width:1px;stroke-linecap:butt;stroke-linejoin:bevel;stroke-miterlimit:4;stroke-dasharray:none;stroke-opacity:1;" />
  <text
     id="text78"
     y="0.000000"
     x="0.000000"
     transform="matrix(1.000000,-0.000000,0.000000,1.000000,64.000000,499.000000)"
     style="font-size:20.000000px;font-style:normal;font-variant:normal;font-weight:700;font-stretch:Normal;line-height:125.000000%;letter-spacing:0px;word-spacing:0px;fill:#000000;fill-opacity:1;stroke:none;font-family:Microsoft Sans Serif;text-align:start;text-anchor:start;"
     xml:space="preserve"><tspan
       id="tspan76"
       y="0.000000"
       x="0.000000"><tspan
         id="tspan74"
         style="fill:#000000;font-size:20.000000px;font-style:normal;font-variant:normal;font-weight:700;font-stretch:Normal;font-family:Microsoft Sans Serif;"
         dy="0.000000"
         dx="0.000000">0</tspan></tspan></text>
  <text
     id="text84"
     y="-61.000000"
     x="-11.000000"
     transform="matrix(1.000000,-0.000000,0.000000,1.000000,64.000000,499.000000)"
     style="font-size:20.000000px;font-style:normal;font-variant:normal;font-weight:700;font-stretch:Normal;line-height:125.000000%;letter-spacing:0px;word-spacing:0px;fill:#000000;fill-opacity:1;stroke:none;font-family:Microsoft Sans Serif;text-align:start;text-anchor:start;"
     xml:space="preserve"><tspan
       id="tspan82"
       y="-61.000000"
       x="-11.000000"><tspan
         id="tspan80"
         style="fill:#000000;font-size:20.000000px;font-style:normal;font-variant:normal;font-weight:700;font-stretch:Normal;font-family:Microsoft Sans Serif;"
         dy="0.000000"
         dx="0.000000">50</tspan></tspan></text>
  <text
     id="text90"
     y="-134.000000"
     x="-23.000000"
     transform="matrix(1.000000,-0.000000,0.000000,1.000000,64.000000,499.000000)"
     style="font-size:20.000000px;font-style:normal;font-variant:normal;font-weight:700;font-stretch:Normal;line-height:125.000000%;letter-spacing:0px;word-spacing:0px;fill:#000000;fill-opacity:1;stroke:none;font-family:Microsoft Sans Serif;text-align:start;text-anchor:start;"
     xml:space="preserve"><tspan
       id="tspan88"
       y="-134.000000"
       x="-23.000000"><tspan
         id="tspan86"
         style="fill:#000000;font-size:20.000000px;font-style:normal;font-variant:normal;font-weight:700;font-stretch:Normal;font-family:Microsoft Sans Serif;"
         dy="0.000000"
         dx="0.000000">100</tspan></tspan></text>
  <text
     id="text96"
     y="-207.000000"
     x="-23.000000"
     transform="matrix(1.000000,-0.000000,0.000000,1.000000,64.000000,499.000000)"
     style="font-size:20.000000px;font-style:normal;font-variant:normal;font-weight:700;font-stretch:Normal;line-height:125.000000%;letter-spacing:0px;word-spacing:0px;fill:#000000;fill-opacity:1;stroke:none;font-family:Microsoft Sans Serif;text-align:start;text-anchor:start;"
     xml:space="preserve"><tspan
       id="tspan94"
       y="-207.000000"
       x="-23.000000"><tspan
         id="tspan92"
         style="fill:#000000;font-size:20.000000px;font-style:normal;font-variant:normal;font-weight:700;font-stretch:Normal;font-family:Microsoft Sans Serif;"
         dy="0.000000"
         dx="0.000000">150</tspan></tspan></text>
  <text
     id="text102"
     y="-280.000000"
     x="-23.000000"
     transform="matrix(1.000000,-0.000000,0.000000,1.000000,64.000000,499.000000)"
     style="font-size:20.000000px;font-style:normal;font-variant:normal;font-weight:700;font-stretch:Normal;line-height:125.000000%;letter-spacing:0px;word-spacing:0px;fill:#000000;fill-opacity:1;stroke:none;font-family:Microsoft Sans Serif;text-align:start;text-anchor:start;"
     xml:space="preserve"><tspan
       id="tspan100"
       y="-280.000000"
       x="-23.000000"><tspan
         id="tspan98"
         style="fill:#000000;font-size:20.000000px;font-style:normal;font-variant:normal;font-weight:700;font-stretch:Normal;font-family:Microsoft Sans Serif;"
         dy="0.000000"
         dx="0.000000">200</tspan></tspan></text>
  <text
     id="text108"
     y="-353.000000"
     x="-23.000000"
     transform="matrix(1.000000,-0.000000,0.000000,1.000000,64.000000,499.000000)"
     style="font-size:20.000000px;font-style:normal;font-variant:normal;font-weight:700;font-stretch:Normal;line-height:125.000000%;letter-spacing:0px;word-spacing:0px;fill:#000000;fill-opacity:1;stroke:none;font-family:Microsoft Sans Serif;text-align:start;text-anchor:start;"
     xml:space="preserve"><tspan
       id="tspan106"
       y="-353.000000"
       x="-23.000000"><tspan
         id="tspan104"
         style="fill:#000000;font-size:20.000000px;font-style:normal;font-variant:normal;font-weight:700;font-stretch:Normal;font-family:Microsoft Sans Serif;"
         dy="0.000000"
         dx="0.000000">250</tspan></tspan></text>
  <text
     id="text132"
     y="0.000000"
     x="0.000000"
     transform="matrix(0.000000,-1.000000,1.000000,0.000000,26.000000,338.000000)"
     style="font-size:20.000000px;font-style:normal;font-variant:normal;font-weight:700;font-stretch:Normal;line-height:125.000000%;letter-spacing:0px;word-spacing:0px;fill:#000000;fill-opacity:1;stroke:none;font-family:Microsoft Sans Serif;text-align:start;text-anchor:start;"
     xml:space="preserve"><tspan
       id="tspan130"
       y="0.000000"
       x="0.000000"><tspan
         id="tspan110"
         style="fill:#000000;font-size:20.000000px;font-style:normal;font-variant:normal;font-weight:700;font-stretch:Normal;font-family:Microsoft Sans Serif;"
         dy="0.000000"
         dx="0.000000">H</tspan><tspan
         id="tspan112"
         style="fill:#000000;font-size:20.000000px;font-style:normal;font-variant:normal;font-weight:700;font-stretch:Normal;font-family:Microsoft Sans Serif;"
         dy="0.000000"
         dx="0.000000">v</tspan><tspan
         id="tspan114"
         style="fill:#000000;font-size:20.000000px;font-style:normal;font-variant:normal;font-weight:700;font-stretch:Normal;font-family:Microsoft Sans Serif;"
         dy="0.000000"
         dx="0.000000" /><tspan
         id="tspan116"
         style="fill:#000000;font-size:20.000000px;font-style:normal;font-variant:normal;font-weight:700;font-stretch:Normal;font-family:Microsoft Sans Serif;"
         dy="0.000000"
         dx="-2.962891">V</tspan><tspan
         id="tspan118"
         style="fill:#000000;font-size:20.000000px;font-style:normal;font-variant:normal;font-weight:700;font-stretch:Normal;font-family:Microsoft Sans Serif;"
         dy="0.000000"
         dx="0.000000">o</tspan><tspan
         id="tspan120"
         style="fill:#000000;font-size:20.000000px;font-style:normal;font-variant:normal;font-weight:700;font-stretch:Normal;font-family:Microsoft Sans Serif;"
         dy="0.000000"
         dx="0.000000">l</tspan><tspan
         id="tspan122"
         style="fill:#000000;font-size:20.000000px;font-style:normal;font-variant:normal;font-weight:700;font-stretch:Normal;font-family:Microsoft Sans Serif;"
         dy="0.000000"
         dx="0.000000">t</tspan><tspan
         id="tspan124"
         style="fill:#000000;font-size:20.000000px;font-style:normal;font-variant:normal;font-weight:700;font-stretch:Normal;font-family:Microsoft Sans Serif;"
         dy="0.000000"
         dx="0.000000">a</tspan><tspan
         id="tspan126"
         style="fill:#000000;font-size:20.000000px;font-style:normal;font-variant:normal;font-weight:700;font-stretch:Normal;font-family:Microsoft Sans Serif;"
         dy="0.000000"
         dx="0.000000">g</tspan><tspan
         id="tspan128"
         style="fill:#000000;font-size:20.000000px;font-style:normal;font-variant:normal;font-weight:700;font-stretch:Normal;font-family:Microsoft Sans Serif;"
         dy="0.000000"
         dx="-3.316406">e</tspan></tspan></text>
  <path
     id="path134"
     d="  M 83,72   L 83,505   L 1047,505   L 1047,72   L 83,72   z "
     style="fill:#ffffff;fill-rule:evenodd;fill-opacity:1;stroke:none;" />
  <path
     id="path136"
     d="  M 83,124   L 83,505   L 1047,505   L 1047,124   L 83,124   z "
     style="fill:#ffffff;fill-rule:evenodd;fill-opacity:1;stroke:none;" />
  <path
     id="path138"
     d="  M 83,72   L 83,505   L 1047,505   L 1047,72   L 83,72   z "
     style="fill:#ffffff;fill-rule:evenodd;fill-opacity:1;stroke:none;" />
  <path
     id="path140"
     d="  M 83,72   L 83,505   L 1047,505   L 1047,72   L 83,72   z "
     style="fill:#ffffff;fill-rule:evenodd;fill-opacity:1;stroke:none;" />
  <path
     id="path142"
     d="  M 83,431   L 1046,431  "
     clip-path="url(#clipEmfPath4)"
     style="fill:none;stroke:#f2f2f2;stroke-width:1px;stroke-linecap:butt;stroke-linejoin:miter;stroke-miterlimit:10;stroke-dasharray:none;stroke-opacity:1;" />
  <path
     id="path144"
     d="  M 83,358   L 1046,358  "
     clip-path="url(#clipEmfPath4)"
     style="fill:none;stroke:#f2f2f2;stroke-width:1px;stroke-linecap:butt;stroke-linejoin:miter;stroke-miterlimit:10;stroke-dasharray:none;stroke-opacity:1;" />
  <path
     id="path146"
     d="  M 83,285   L 1046,285  "
     clip-path="url(#clipEmfPath4)"
     style="fill:none;stroke:#f2f2f2;stroke-width:1px;stroke-linecap:butt;stroke-linejoin:miter;stroke-miterlimit:10;stroke-dasharray:none;stroke-opacity:1;" />
  <path
     id="path148"
     d="  M 83,212   L 1046,212  "
     clip-path="url(#clipEmfPath4)"
     style="fill:none;stroke:#f2f2f2;stroke-width:1px;stroke-linecap:butt;stroke-linejoin:miter;stroke-miterlimit:10;stroke-dasharray:none;stroke-opacity:1;" />
  <path
     id="path150"
     d="  M 83,139   L 1046,139  "
     clip-path="url(#clipEmfPath4)"
     style="fill:none;stroke:#f2f2f2;stroke-width:1px;stroke-linecap:butt;stroke-linejoin:miter;stroke-miterlimit:10;stroke-dasharray:none;stroke-opacity:1;" />
  <path
     id="path152"
     d="  M 83,503.5   L 84,503.5   L 84,504.5   L 83,504.5   L 83,503.5  z    M 85,503.5   L 86,503.5   L 86,504.5   L 85,504.5   L 85,503.5  z    M 87,503.5   L 88,503.5   L 88,504.5   L 87,504.5   L 87,503.5  z    M 89,503.5   L 90,503.5   L 90,504.5   L 89,504.5   L 89,503.5  z    M 91,503.5   L 92,503.5   L 92,504.5   L 91,504.5   L 91,503.5  z    M 93,503.5   L 94,503.5   L 94,504.5   L 93,504.5   L 93,503.5  z    M 95,503.5   L 96,503.5   L 96,504.5   L 95,504.5   L 95,503.5  z    M 97,503.5   L 98,503.5   L 98,504.5   L 97,504.5   L 97,503.5  z    M 99,503.5   L 100,503.5   L 100,504.5   L 99,504.5   L 99,503.5  z    M 101,503.5   L 102,503.5   L 102,504.5   L 101,504.5   L 101,503.5  z    M 103,503.5   L 104,503.5   L 104,504.5   L 103,504.5   L 103,503.5  z    M 105,503.5   L 106,503.5   L 106,504.5   L 105,504.5   L 105,503.5  z    M 107,503.5   L 108,503.5   L 108,504.5   L 107,504.5   L 107,503.5  z    M 109,503.5   L 110,503.5   L 110,504.5   L 109,504.5   L 109,503.5  z    M 111,503.5   L 112,503.5   L 112,504.5   L 111,504.5   L 111,503.5  z    M 113,503.5   L 114,503.5   L 114,504.5   L 113,504.5   L 113,503.5  z    M 115,503.5   L 116,503.5   L 116,504.5   L 115,504.5   L 115,503.5  z    M 117,503.5   L 118,503.5   L 118,504.5   L 117,504.5   L 117,503.5  z    M 119,503.5   L 120,503.5   L 120,504.5   L 119,504.5   L 119,503.5  z    M 121,503.5   L 122,503.5   L 122,504.5   L 121,504.5   L 121,503.5  z    M 123,503.5   L 124,503.5   L 124,504.5   L 123,504.5   L 123,503.5  z    M 125,503.5   L 126,503.5   L 126,504.5   L 125,504.5   L 125,503.5  z    M 127,503.5   L 128,503.5   L 128,504.5   L 127,504.5   L 127,503.5  z    M 129,503.5   L 130,503.5   L 130,504.5   L 129,504.5   L 129,503.5  z    M 131,503.5   L 132,503.5   L 132,504.5   L 131,504.5   L 131,503.5  z    M 133,503.5   L 134,503.5   L 134,504.5   L 133,504.5   L 133,503.5  z    M 135,503.5   L 136,503.5   L 136,504.5   L 135,504.5   L 135,503.5  z    M 137,503.5   L 138,503.5   L 138,504.5   L 137,504.5   L 137,503.5  z    M 139,503.5   L 140,503.5   L 140,504.5   L 139,504.5   L 139,503.5  z    M 141,503.5   L 142,503.5   L 142,504.5   L 141,504.5   L 141,503.5  z    M 143,503.5   L 144,503.5   L 144,504.5   L 143,504.5   L 143,503.5  z    M 145,503.5   L 146,503.5   L 146,504.5   L 145,504.5   L 145,503.5  z    M 147,503.5   L 148,503.5   L 148,504.5   L 147,504.5   L 147,503.5  z    M 149,503.5   L 150,503.5   L 150,504.5   L 149,504.5   L 149,503.5  z    M 151,503.5   L 152,503.5   L 152,504.5   L 151,504.5   L 151,503.5  z    M 153,503.5   L 154,503.5   L 154,504.5   L 153,504.5   L 153,503.5  z    M 155,503.5   L 156,503.5   L 156,504.5   L 155,504.5   L 155,503.5  z    M 157,503.5   L 158,503.5   L 158,504.5   L 157,504.5   L 157,503.5  z    M 159,503.5   L 160,503.5   L 160,504.5   L 159,504.5   L 159,503.5  z    M 161,503.5   L 162,503.5   L 162,504.5   L 161,504.5   L 161,503.5  z    M 163,503.5   L 164,503.5   L 164,504.5   L 163,504.5   L 163,503.5  z    M 165,503.5   L 166,503.5   L 166,504.5   L 165,504.5   L 165,503.5  z    M 167,503.5   L 168,503.5   L 168,504.5   L 167,504.5   L 167,503.5  z    M 169,503.5   L 170,503.5   L 170,504.5   L 169,504.5   L 169,503.5  z    M 171,503.5   L 172,503.5   L 172,504.5   L 171,504.5   L 171,503.5  z    M 173,503.5   L 174,503.5   L 174,504.5   L 173,504.5   L 173,503.5  z    M 175,503.5   L 176,503.5   L 176,504.5   L 175,504.5   L 175,503.5  z    M 177,503.5   L 178,503.5   L 178,504.5   L 177,504.5   L 177,503.5  z    M 179,503.5   L 180,503.5   L 180,504.5   L 179,504.5   L 179,503.5  z    M 181,503.5   L 182,503.5   L 182,504.5   L 181,504.5   L 181,503.5  z    M 183,503.5   L 184,503.5   L 184,504.5   L 183,504.5   L 183,503.5  z    M 185,503.5   L 186,503.5   L 186,504.5   L 185,504.5   L 185,503.5  z    M 187,503.5   L 188,503.5   L 188,504.5   L 187,504.5   L 187,503.5  z    M 189,503.5   L 190,503.5   L 190,504.5   L 189,504.5   L 189,503.5  z    M 191,503.5   L 192,503.5   L 192,504.5   L 191,504.5   L 191,503.5  z    M 193,503.5   L 194,503.5   L 194,504.5   L 193,504.5   L 193,503.5  z    M 195,503.5   L 196,503.5   L 196,504.5   L 195,504.5   L 195,503.5  z    M 197,503.5   L 198,503.5   L 198,504.5   L 197,504.5   L 197,503.5  z    M 199,503.5   L 200,503.5   L 200,504.5   L 199,504.5   L 199,503.5  z    M 201,503.5   L 202,503.5   L 202,504.5   L 201,504.5   L 201,503.5  z    M 203,503.5   L 204,503.5   L 204,504.5   L 203,504.5   L 203,503.5  z    M 205,503.5   L 206,503.5   L 206,504.5   L 205,504.5   L 205,503.5  z    M 207,503.5   L 208,503.5   L 208,504.5   L 207,504.5   L 207,503.5  z    M 209,503.5   L 210,503.5   L 210,504.5   L 209,504.5   L 209,503.5  z    M 211,503.5   L 212,503.5   L 212,504.5   L 211,504.5   L 211,503.5  z    M 213,503.5   L 214,503.5   L 214,504.5   L 213,504.5   L 213,503.5  z    M 215,503.5   L 216,503.5   L 216,504.5   L 215,504.5   L 215,503.5  z    M 217,503.5   L 218,503.5   L 218,504.5   L 217,504.5   L 217,503.5  z    M 219,503.5   L 220,503.5   L 220,504.5   L 219,504.5   L 219,503.5  z    M 221,503.5   L 222,503.5   L 222,504.5   L 221,504.5   L 221,503.5  z    M 223,503.5   L 224,503.5   L 224,504.5   L 223,504.5   L 223,503.5  z    M 225,503.5   L 226,503.5   L 226,504.5   L 225,504.5   L 225,503.5  z    M 227,503.5   L 228,503.5   L 228,504.5   L 227,504.5   L 227,503.5  z    M 229,503.5   L 230,503.5   L 230,504.5   L 229,504.5   L 229,503.5  z    M 231,503.5   L 232,503.5   L 232,504.5   L 231,504.5   L 231,503.5  z    M 233,503.5   L 234,503.5   L 234,504.5   L 233,504.5   L 233,503.5  z    M 235,503.5   L 236,503.5   L 236,504.5   L 235,504.5   L 235,503.5  z    M 237,503.5   L 238,503.5   L 238,504.5   L 237,504.5   L 237,503.5  z    M 239,503.5   L 240,503.5   L 240,504.5   L 239,504.5   L 239,503.5  z    M 241,503.5   L 242,503.5   L 242,504.5   L 241,504.5   L 241,503.5  z    M 243,503.5   L 244,503.5   L 244,504.5   L 243,504.5   L 243,503.5  z    M 245,503.5   L 246,503.5   L 246,504.5   L 245,504.5   L 245,503.5  z    M 247,503.5   L 248,503.5   L 248,504.5   L 247,504.5   L 247,503.5  z    M 249,503.5   L 250,503.5   L 250,504.5   L 249,504.5   L 249,503.5  z    M 251,503.5   L 252,503.5   L 252,504.5   L 251,504.5   L 251,503.5  z    M 253,503.5   L 254,503.5   L 254,504.5   L 253,504.5   L 253,503.5  z    M 255,503.5   L 256,503.5   L 256,504.5   L 255,504.5   L 255,503.5  z    M 257,503.5   L 258,503.5   L 258,504.5   L 257,504.5   L 257,503.5  z    M 259,503.5   L 260,503.5   L 260,504.5   L 259,504.5   L 259,503.5  z    M 261,503.5   L 262,503.5   L 262,504.5   L 261,504.5   L 261,503.5  z    M 263,503.5   L 264,503.5   L 264,504.5   L 263,504.5   L 263,503.5  z    M 265,503.5   L 266,503.5   L 266,504.5   L 265,504.5   L 265,503.5  z    M 267,503.5   L 268,503.5   L 268,504.5   L 267,504.5   L 267,503.5  z    M 269,503.5   L 270,503.5   L 270,504.5   L 269,504.5   L 269,503.5  z    M 271,503.5   L 272,503.5   L 272,504.5   L 271,504.5   L 271,503.5  z    M 273,503.5   L 274,503.5   L 274,504.5   L 273,504.5   L 273,503.5  z    M 275,503.5   L 276,503.5   L 276,504.5   L 275,504.5   L 275,503.5  z    M 277,503.5   L 278,503.5   L 278,504.5   L 277,504.5   L 277,503.5  z    M 279,503.5   L 280,503.5   L 280,504.5   L 279,504.5   L 279,503.5  z    M 281,503.5   L 282,503.5   L 282,504.5   L 281,504.5   L 281,503.5  z    M 283,503.5   L 284,503.5   L 284,504.5   L 283,504.5   L 283,503.5  z    M 285,503.5   L 286,503.5   L 286,504.5   L 285,504.5   L 285,503.5  z    M 287,503.5   L 288,503.5   L 288,504.5   L 287,504.5   L 287,503.5  z    M 289,503.5   L 290,503.5   L 290,504.5   L 289,504.5   L 289,503.5  z    M 291,503.5   L 292,503.5   L 292,504.5   L 291,504.5   L 291,503.5  z    M 293,503.5   L 294,503.5   L 294,504.5   L 293,504.5   L 293,503.5  z    M 295,503.5   L 296,503.5   L 296,504.5   L 295,504.5   L 295,503.5  z    M 297,503.5   L 298,503.5   L 298,504.5   L 297,504.5   L 297,503.5  z    M 299,503.5   L 300,503.5   L 300,504.5   L 299,504.5   L 299,503.5  z    M 301,503.5   L 302,503.5   L 302,504.5   L 301,504.5   L 301,503.5  z    M 303,503.5   L 304,503.5   L 304,504.5   L 303,504.5   L 303,503.5  z    M 305,503.5   L 306,503.5   L 306,504.5   L 305,504.5   L 305,503.5  z    M 307,503.5   L 308,503.5   L 308,504.5   L 307,504.5   L 307,503.5  z    M 309,503.5   L 310,503.5   L 310,504.5   L 309,504.5   L 309,503.5  z    M 311,503.5   L 312,503.5   L 312,504.5   L 311,504.5   L 311,503.5  z    M 313,503.5   L 314,503.5   L 314,504.5   L 313,504.5   L 313,503.5  z    M 315,503.5   L 316,503.5   L 316,504.5   L 315,504.5   L 315,503.5  z    M 317,503.5   L 318,503.5   L 318,504.5   L 317,504.5   L 317,503.5  z    M 319,503.5   L 320,503.5   L 320,504.5   L 319,504.5   L 319,503.5  z    M 321,503.5   L 322,503.5   L 322,504.5   L 321,504.5   L 321,503.5  z    M 323,503.5   L 324,503.5   L 324,504.5   L 323,504.5   L 323,503.5  z    M 325,503.5   L 326,503.5   L 326,504.5   L 325,504.5   L 325,503.5  z    M 327,503.5   L 328,503.5   L 328,504.5   L 327,504.5   L 327,503.5  z    M 329,503.5   L 330,503.5   L 330,504.5   L 329,504.5   L 329,503.5  z    M 331,503.5   L 332,503.5   L 332,504.5   L 331,504.5   L 331,503.5  z    M 333,503.5   L 334,503.5   L 334,504.5   L 333,504.5   L 333,503.5  z    M 335,503.5   L 336,503.5   L 336,504.5   L 335,504.5   L 335,503.5  z    M 337,503.5   L 338,503.5   L 338,504.5   L 337,504.5   L 337,503.5  z    M 339,503.5   L 340,503.5   L 340,504.5   L 339,504.5   L 339,503.5  z    M 341,503.5   L 342,503.5   L 342,504.5   L 341,504.5   L 341,503.5  z    M 343,503.5   L 344,503.5   L 344,504.5   L 343,504.5   L 343,503.5  z    M 345,503.5   L 346,503.5   L 346,504.5   L 345,504.5   L 345,503.5  z    M 347,503.5   L 348,503.5   L 348,504.5   L 347,504.5   L 347,503.5  z    M 349,503.5   L 350,503.5   L 350,504.5   L 349,504.5   L 349,503.5  z    M 351,503.5   L 352,503.5   L 352,504.5   L 351,504.5   L 351,503.5  z    M 353,503.5   L 354,503.5   L 354,504.5   L 353,504.5   L 353,503.5  z    M 355,503.5   L 356,503.5   L 356,504.5   L 355,504.5   L 355,503.5  z    M 357,503.5   L 358,503.5   L 358,504.5   L 357,504.5   L 357,503.5  z    M 359,503.5   L 360,503.5   L 360,504.5   L 359,504.5   L 359,503.5  z    M 361,503.5   L 362,503.5   L 362,504.5   L 361,504.5   L 361,503.5  z    M 363,503.5   L 364,503.5   L 364,504.5   L 363,504.5   L 363,503.5  z    M 365,503.5   L 366,503.5   L 366,504.5   L 365,504.5   L 365,503.5  z    M 367,503.5   L 368,503.5   L 368,504.5   L 367,504.5   L 367,503.5  z    M 369,503.5   L 370,503.5   L 370,504.5   L 369,504.5   L 369,503.5  z    M 371,503.5   L 372,503.5   L 372,504.5   L 371,504.5   L 371,503.5  z    M 373,503.5   L 374,503.5   L 374,504.5   L 373,504.5   L 373,503.5  z    M 375,503.5   L 376,503.5   L 376,504.5   L 375,504.5   L 375,503.5  z    M 377,503.5   L 378,503.5   L 378,504.5   L 377,504.5   L 377,503.5  z    M 379,503.5   L 380,503.5   L 380,504.5   L 379,504.5   L 379,503.5  z    M 381,503.5   L 382,503.5   L 382,504.5   L 381,504.5   L 381,503.5  z    M 383,503.5   L 384,503.5   L 384,504.5   L 383,504.5   L 383,503.5  z    M 385,503.5   L 386,503.5   L 386,504.5   L 385,504.5   L 385,503.5  z    M 387,503.5   L 388,503.5   L 388,504.5   L 387,504.5   L 387,503.5  z    M 389,503.5   L 390,503.5   L 390,504.5   L 389,504.5   L 389,503.5  z    M 391,503.5   L 392,503.5   L 392,504.5   L 391,504.5   L 391,503.5  z    M 393,503.5   L 394,503.5   L 394,504.5   L 393,504.5   L 393,503.5  z    M 395,503.5   L 396,503.5   L 396,504.5   L 395,504.5   L 395,503.5  z    M 397,503.5   L 398,503.5   L 398,504.5   L 397,504.5   L 397,503.5  z    M 399,503.5   L 400,503.5   L 400,504.5   L 399,504.5   L 399,503.5  z    M 401,503.5   L 402,503.5   L 402,504.5   L 401,504.5   L 401,503.5  z    M 403,503.5   L 404,503.5   L 404,504.5   L 403,504.5   L 403,503.5  z    M 405,503.5   L 406,503.5   L 406,504.5   L 405,504.5   L 405,503.5  z    M 407,503.5   L 408,503.5   L 408,504.5   L 407,504.5   L 407,503.5  z    M 409,503.5   L 410,503.5   L 410,504.5   L 409,504.5   L 409,503.5  z    M 411,503.5   L 412,503.5   L 412,504.5   L 411,504.5   L 411,503.5  z    M 413,503.5   L 414,503.5   L 414,504.5   L 413,504.5   L 413,503.5  z    M 415,503.5   L 416,503.5   L 416,504.5   L 415,504.5   L 415,503.5  z    M 417,503.5   L 418,503.5   L 418,504.5   L 417,504.5   L 417,503.5  z    M 419,503.5   L 420,503.5   L 420,504.5   L 419,504.5   L 419,503.5  z    M 421,503.5   L 422,503.5   L 422,504.5   L 421,504.5   L 421,503.5  z    M 423,503.5   L 424,503.5   L 424,504.5   L 423,504.5   L 423,503.5  z    M 425,503.5   L 426,503.5   L 426,504.5   L 425,504.5   L 425,503.5  z    M 427,503.5   L 428,503.5   L 428,504.5   L 427,504.5   L 427,503.5  z    M 429,503.5   L 430,503.5   L 430,504.5   L 429,504.5   L 429,503.5  z    M 431,503.5   L 432,503.5   L 432,504.5   L 431,504.5   L 431,503.5  z    M 433,503.5   L 434,503.5   L 434,504.5   L 433,504.5   L 433,503.5  z    M 435,503.5   L 436,503.5   L 436,504.5   L 435,504.5   L 435,503.5  z    M 437,503.5   L 438,503.5   L 438,504.5   L 437,504.5   L 437,503.5  z    M 439,503.5   L 440,503.5   L 440,504.5   L 439,504.5   L 439,503.5  z    M 441,503.5   L 442,503.5   L 442,504.5   L 441,504.5   L 441,503.5  z    M 443,503.5   L 444,503.5   L 444,504.5   L 443,504.5   L 443,503.5  z    M 445,503.5   L 446,503.5   L 446,504.5   L 445,504.5   L 445,503.5  z    M 447,503.5   L 448,503.5   L 448,504.5   L 447,504.5   L 447,503.5  z    M 449,503.5   L 450,503.5   L 450,504.5   L 449,504.5   L 449,503.5  z    M 451,503.5   L 452,503.5   L 452,504.5   L 451,504.5   L 451,503.5  z    M 453,503.5   L 454,503.5   L 454,504.5   L 453,504.5   L 453,503.5  z    M 455,503.5   L 456,503.5   L 456,504.5   L 455,504.5   L 455,503.5  z    M 457,503.5   L 458,503.5   L 458,504.5   L 457,504.5   L 457,503.5  z    M 459,503.5   L 460,503.5   L 460,504.5   L 459,504.5   L 459,503.5  z    M 461,503.5   L 462,503.5   L 462,504.5   L 461,504.5   L 461,503.5  z    M 463,503.5   L 464,503.5   L 464,504.5   L 463,504.5   L 463,503.5  z    M 465,503.5   L 466,503.5   L 466,504.5   L 465,504.5   L 465,503.5  z    M 467,503.5   L 468,503.5   L 468,504.5   L 467,504.5   L 467,503.5  z    M 469,503.5   L 470,503.5   L 470,504.5   L 469,504.5   L 469,503.5  z    M 471,503.5   L 472,503.5   L 472,504.5   L 471,504.5   L 471,503.5  z    M 473,503.5   L 474,503.5   L 474,504.5   L 473,504.5   L 473,503.5  z    M 475,503.5   L 476,503.5   L 476,504.5   L 475,504.5   L 475,503.5  z    M 477,503.5   L 478,503.5   L 478,504.5   L 477,504.5   L 477,503.5  z    M 479,503.5   L 480,503.5   L 480,504.5   L 479,504.5   L 479,503.5  z    M 481,503.5   L 482,503.5   L 482,504.5   L 481,504.5   L 481,503.5  z    M 483,503.5   L 484,503.5   L 484,504.5   L 483,504.5   L 483,503.5  z    M 485,503.5   L 486,503.5   L 486,504.5   L 485,504.5   L 485,503.5  z    M 487,503.5   L 488,503.5   L 488,504.5   L 487,504.5   L 487,503.5  z    M 489,503.5   L 490,503.5   L 490,504.5   L 489,504.5   L 489,503.5  z    M 491,503.5   L 492,503.5   L 492,504.5   L 491,504.5   L 491,503.5  z    M 493,503.5   L 494,503.5   L 494,504.5   L 493,504.5   L 493,503.5  z    M 495,503.5   L 496,503.5   L 496,504.5   L 495,504.5   L 495,503.5  z    M 497,503.5   L 498,503.5   L 498,504.5   L 497,504.5   L 497,503.5  z    M 499,503.5   L 500,503.5   L 500,504.5   L 499,504.5   L 499,503.5  z    M 501,503.5   L 502,503.5   L 502,504.5   L 501,504.5   L 501,503.5  z    M 503,503.5   L 504,503.5   L 504,504.5   L 503,504.5   L 503,503.5  z    M 505,503.5   L 506,503.5   L 506,504.5   L 505,504.5   L 505,503.5  z    M 507,503.5   L 508,503.5   L 508,504.5   L 507,504.5   L 507,503.5  z    M 509,503.5   L 510,503.5   L 510,504.5   L 509,504.5   L 509,503.5  z    M 511,503.5   L 512,503.5   L 512,504.5   L 511,504.5   L 511,503.5  z    M 513,503.5   L 514,503.5   L 514,504.5   L 513,504.5   L 513,503.5  z    M 515,503.5   L 516,503.5   L 516,504.5   L 515,504.5   L 515,503.5  z    M 517,503.5   L 518,503.5   L 518,504.5   L 517,504.5   L 517,503.5  z    M 519,503.5   L 520,503.5   L 520,504.5   L 519,504.5   L 519,503.5  z    M 521,503.5   L 522,503.5   L 522,504.5   L 521,504.5   L 521,503.5  z    M 523,503.5   L 524,503.5   L 524,504.5   L 523,504.5   L 523,503.5  z    M 525,503.5   L 526,503.5   L 526,504.5   L 525,504.5   L 525,503.5  z    M 527,503.5   L 528,503.5   L 528,504.5   L 527,504.5   L 527,503.5  z    M 529,503.5   L 530,503.5   L 530,504.5   L 529,504.5   L 529,503.5  z    M 531,503.5   L 532,503.5   L 532,504.5   L 531,504.5   L 531,503.5  z    M 533,503.5   L 534,503.5   L 534,504.5   L 533,504.5   L 533,503.5  z    M 535,503.5   L 536,503.5   L 536,504.5   L 535,504.5   L 535,503.5  z    M 537,503.5   L 538,503.5   L 538,504.5   L 537,504.5   L 537,503.5  z    M 539,503.5   L 540,503.5   L 540,504.5   L 539,504.5   L 539,503.5  z    M 541,503.5   L 542,503.5   L 542,504.5   L 541,504.5   L 541,503.5  z    M 543,503.5   L 544,503.5   L 544,504.5   L 543,504.5   L 543,503.5  z    M 545,503.5   L 546,503.5   L 546,504.5   L 545,504.5   L 545,503.5  z    M 547,503.5   L 548,503.5   L 548,504.5   L 547,504.5   L 547,503.5  z    M 549,503.5   L 550,503.5   L 550,504.5   L 549,504.5   L 549,503.5  z    M 551,503.5   L 552,503.5   L 552,504.5   L 551,504.5   L 551,503.5  z    M 553,503.5   L 554,503.5   L 554,504.5   L 553,504.5   L 553,503.5  z    M 555,503.5   L 556,503.5   L 556,504.5   L 555,504.5   L 555,503.5  z    M 557,503.5   L 558,503.5   L 558,504.5   L 557,504.5   L 557,503.5  z    M 559,503.5   L 560,503.5   L 560,504.5   L 559,504.5   L 559,503.5  z    M 561,503.5   L 562,503.5   L 562,504.5   L 561,504.5   L 561,503.5  z    M 563,503.5   L 564,503.5   L 564,504.5   L 563,504.5   L 563,503.5  z    M 565,503.5   L 566,503.5   L 566,504.5   L 565,504.5   L 565,503.5  z    M 567,503.5   L 568,503.5   L 568,504.5   L 567,504.5   L 567,503.5  z    M 569,503.5   L 570,503.5   L 570,504.5   L 569,504.5   L 569,503.5  z    M 571,503.5   L 572,503.5   L 572,504.5   L 571,504.5   L 571,503.5  z    M 573,503.5   L 574,503.5   L 574,504.5   L 573,504.5   L 573,503.5  z    M 575,503.5   L 576,503.5   L 576,504.5   L 575,504.5   L 575,503.5  z    M 577,503.5   L 578,503.5   L 578,504.5   L 577,504.5   L 577,503.5  z    M 579,503.5   L 580,503.5   L 580,504.5   L 579,504.5   L 579,503.5  z    M 581,503.5   L 582,503.5   L 582,504.5   L 581,504.5   L 581,503.5  z    M 583,503.5   L 584,503.5   L 584,504.5   L 583,504.5   L 583,503.5  z    M 585,503.5   L 586,503.5   L 586,504.5   L 585,504.5   L 585,503.5  z    M 587,503.5   L 588,503.5   L 588,504.5   L 587,504.5   L 587,503.5  z    M 589,503.5   L 590,503.5   L 590,504.5   L 589,504.5   L 589,503.5  z    M 591,503.5   L 592,503.5   L 592,504.5   L 591,504.5   L 591,503.5  z    M 593,503.5   L 594,503.5   L 594,504.5   L 593,504.5   L 593,503.5  z    M 595,503.5   L 596,503.5   L 596,504.5   L 595,504.5   L 595,503.5  z    M 597,503.5   L 598,503.5   L 598,504.5   L 597,504.5   L 597,503.5  z    M 599,503.5   L 600,503.5   L 600,504.5   L 599,504.5   L 599,503.5  z    M 601,503.5   L 602,503.5   L 602,504.5   L 601,504.5   L 601,503.5  z    M 603,503.5   L 604,503.5   L 604,504.5   L 603,504.5   L 603,503.5  z    M 605,503.5   L 606,503.5   L 606,504.5   L 605,504.5   L 605,503.5  z    M 607,503.5   L 608,503.5   L 608,504.5   L 607,504.5   L 607,503.5  z    M 609,503.5   L 610,503.5   L 610,504.5   L 609,504.5   L 609,503.5  z    M 611,503.5   L 612,503.5   L 612,504.5   L 611,504.5   L 611,503.5  z    M 613,503.5   L 614,503.5   L 614,504.5   L 613,504.5   L 613,503.5  z    M 615,503.5   L 616,503.5   L 616,504.5   L 615,504.5   L 615,503.5  z    M 617,503.5   L 618,503.5   L 618,504.5   L 617,504.5   L 617,503.5  z    M 619,503.5   L 620,503.5   L 620,504.5   L 619,504.5   L 619,503.5  z    M 621,503.5   L 622,503.5   L 622,504.5   L 621,504.5   L 621,503.5  z    M 623,503.5   L 624,503.5   L 624,504.5   L 623,504.5   L 623,503.5  z    M 625,503.5   L 626,503.5   L 626,504.5   L 625,504.5   L 625,503.5  z    M 627,503.5   L 628,503.5   L 628,504.5   L 627,504.5   L 627,503.5  z    M 629,503.5   L 630,503.5   L 630,504.5   L 629,504.5   L 629,503.5  z    M 631,503.5   L 632,503.5   L 632,504.5   L 631,504.5   L 631,503.5  z    M 633,503.5   L 634,503.5   L 634,504.5   L 633,504.5   L 633,503.5  z    M 635,503.5   L 636,503.5   L 636,504.5   L 635,504.5   L 635,503.5  z    M 637,503.5   L 638,503.5   L 638,504.5   L 637,504.5   L 637,503.5  z    M 639,503.5   L 640,503.5   L 640,504.5   L 639,504.5   L 639,503.5  z    M 641,503.5   L 642,503.5   L 642,504.5   L 641,504.5   L 641,503.5  z    M 643,503.5   L 644,503.5   L 644,504.5   L 643,504.5   L 643,503.5  z    M 645,503.5   L 646,503.5   L 646,504.5   L 645,504.5   L 645,503.5  z    M 647,503.5   L 648,503.5   L 648,504.5   L 647,504.5   L 647,503.5  z    M 649,503.5   L 650,503.5   L 650,504.5   L 649,504.5   L 649,503.5  z    M 651,503.5   L 652,503.5   L 652,504.5   L 651,504.5   L 651,503.5  z    M 653,503.5   L 654,503.5   L 654,504.5   L 653,504.5   L 653,503.5  z    M 655,503.5   L 656,503.5   L 656,504.5   L 655,504.5   L 655,503.5  z    M 657,503.5   L 658,503.5   L 658,504.5   L 657,504.5   L 657,503.5  z    M 659,503.5   L 660,503.5   L 660,504.5   L 659,504.5   L 659,503.5  z    M 661,503.5   L 662,503.5   L 662,504.5   L 661,504.5   L 661,503.5  z    M 663,503.5   L 664,503.5   L 664,504.5   L 663,504.5   L 663,503.5  z    M 665,503.5   L 666,503.5   L 666,504.5   L 665,504.5   L 665,503.5  z    M 667,503.5   L 668,503.5   L 668,504.5   L 667,504.5   L 667,503.5  z    M 669,503.5   L 670,503.5   L 670,504.5   L 669,504.5   L 669,503.5  z    M 671,503.5   L 672,503.5   L 672,504.5   L 671,504.5   L 671,503.5  z    M 673,503.5   L 674,503.5   L 674,504.5   L 673,504.5   L 673,503.5  z    M 675,503.5   L 676,503.5   L 676,504.5   L 675,504.5   L 675,503.5  z    M 677,503.5   L 678,503.5   L 678,504.5   L 677,504.5   L 677,503.5  z    M 679,503.5   L 680,503.5   L 680,504.5   L 679,504.5   L 679,503.5  z    M 681,503.5   L 682,503.5   L 682,504.5   L 681,504.5   L 681,503.5  z    M 683,503.5   L 684,503.5   L 684,504.5   L 683,504.5   L 683,503.5  z    M 685,503.5   L 686,503.5   L 686,504.5   L 685,504.5   L 685,503.5  z    M 687,503.5   L 688,503.5   L 688,504.5   L 687,504.5   L 687,503.5  z    M 689,503.5   L 690,503.5   L 690,504.5   L 689,504.5   L 689,503.5  z    M 691,503.5   L 692,503.5   L 692,504.5   L 691,504.5   L 691,503.5  z    M 693,503.5   L 694,503.5   L 694,504.5   L 693,504.5   L 693,503.5  z    M 695,503.5   L 696,503.5   L 696,504.5   L 695,504.5   L 695,503.5  z    M 697,503.5   L 698,503.5   L 698,504.5   L 697,504.5   L 697,503.5  z    M 699,503.5   L 700,503.5   L 700,504.5   L 699,504.5   L 699,503.5  z    M 701,503.5   L 702,503.5   L 702,504.5   L 701,504.5   L 701,503.5  z    M 703,503.5   L 704,503.5   L 704,504.5   L 703,504.5   L 703,503.5  z    M 705,503.5   L 706,503.5   L 706,504.5   L 705,504.5   L 705,503.5  z    M 707,503.5   L 708,503.5   L 708,504.5   L 707,504.5   L 707,503.5  z    M 709,503.5   L 710,503.5   L 710,504.5   L 709,504.5   L 709,503.5  z    M 711,503.5   L 712,503.5   L 712,504.5   L 711,504.5   L 711,503.5  z    M 713,503.5   L 714,503.5   L 714,504.5   L 713,504.5   L 713,503.5  z    M 715,503.5   L 716,503.5   L 716,504.5   L 715,504.5   L 715,503.5  z    M 717,503.5   L 718,503.5   L 718,504.5   L 717,504.5   L 717,503.5  z    M 719,503.5   L 720,503.5   L 720,504.5   L 719,504.5   L 719,503.5  z    M 721,503.5   L 722,503.5   L 722,504.5   L 721,504.5   L 721,503.5  z    M 723,503.5   L 724,503.5   L 724,504.5   L 723,504.5   L 723,503.5  z    M 725,503.5   L 726,503.5   L 726,504.5   L 725,504.5   L 725,503.5  z    M 727,503.5   L 728,503.5   L 728,504.5   L 727,504.5   L 727,503.5  z    M 729,503.5   L 730,503.5   L 730,504.5   L 729,504.5   L 729,503.5  z    M 731,503.5   L 732,503.5   L 732,504.5   L 731,504.5   L 731,503.5  z    M 733,503.5   L 734,503.5   L 734,504.5   L 733,504.5   L 733,503.5  z    M 735,503.5   L 736,503.5   L 736,504.5   L 735,504.5   L 735,503.5  z    M 737,503.5   L 738,503.5   L 738,504.5   L 737,504.5   L 737,503.5  z    M 739,503.5   L 740,503.5   L 740,504.5   L 739,504.5   L 739,503.5  z    M 741,503.5   L 742,503.5   L 742,504.5   L 741,504.5   L 741,503.5  z    M 743,503.5   L 744,503.5   L 744,504.5   L 743,504.5   L 743,503.5  z    M 745,503.5   L 746,503.5   L 746,504.5   L 745,504.5   L 745,503.5  z    M 747,503.5   L 748,503.5   L 748,504.5   L 747,504.5   L 747,503.5  z    M 749,503.5   L 750,503.5   L 750,504.5   L 749,504.5   L 749,503.5  z    M 751,503.5   L 752,503.5   L 752,504.5   L 751,504.5   L 751,503.5  z    M 753,503.5   L 754,503.5   L 754,504.5   L 753,504.5   L 753,503.5  z    M 755,503.5   L 756,503.5   L 756,504.5   L 755,504.5   L 755,503.5  z    M 757,503.5   L 758,503.5   L 758,504.5   L 757,504.5   L 757,503.5  z    M 759,503.5   L 760,503.5   L 760,504.5   L 759,504.5   L 759,503.5  z    M 761,503.5   L 762,503.5   L 762,504.5   L 761,504.5   L 761,503.5  z    M 763,503.5   L 764,503.5   L 764,504.5   L 763,504.5   L 763,503.5  z    M 765,503.5   L 766,503.5   L 766,504.5   L 765,504.5   L 765,503.5  z    M 767,503.5   L 768,503.5   L 768,504.5   L 767,504.5   L 767,503.5  z    M 769,503.5   L 770,503.5   L 770,504.5   L 769,504.5   L 769,503.5  z    M 771,503.5   L 772,503.5   L 772,504.5   L 771,504.5   L 771,503.5  z    M 773,503.5   L 774,503.5   L 774,504.5   L 773,504.5   L 773,503.5  z    M 775,503.5   L 776,503.5   L 776,504.5   L 775,504.5   L 775,503.5  z    M 777,503.5   L 778,503.5   L 778,504.5   L 777,504.5   L 777,503.5  z    M 779,503.5   L 780,503.5   L 780,504.5   L 779,504.5   L 779,503.5  z    M 781,503.5   L 782,503.5   L 782,504.5   L 781,504.5   L 781,503.5  z    M 783,503.5   L 784,503.5   L 784,504.5   L 783,504.5   L 783,503.5  z    M 785,503.5   L 786,503.5   L 786,504.5   L 785,504.5   L 785,503.5  z    M 787,503.5   L 788,503.5   L 788,504.5   L 787,504.5   L 787,503.5  z    M 789,503.5   L 790,503.5   L 790,504.5   L 789,504.5   L 789,503.5  z    M 791,503.5   L 792,503.5   L 792,504.5   L 791,504.5   L 791,503.5  z    M 793,503.5   L 794,503.5   L 794,504.5   L 793,504.5   L 793,503.5  z    M 795,503.5   L 796,503.5   L 796,504.5   L 795,504.5   L 795,503.5  z    M 797,503.5   L 798,503.5   L 798,504.5   L 797,504.5   L 797,503.5  z    M 799,503.5   L 800,503.5   L 800,504.5   L 799,504.5   L 799,503.5  z    M 801,503.5   L 802,503.5   L 802,504.5   L 801,504.5   L 801,503.5  z    M 803,503.5   L 804,503.5   L 804,504.5   L 803,504.5   L 803,503.5  z    M 805,503.5   L 806,503.5   L 806,504.5   L 805,504.5   L 805,503.5  z    M 807,503.5   L 808,503.5   L 808,504.5   L 807,504.5   L 807,503.5  z    M 809,503.5   L 810,503.5   L 810,504.5   L 809,504.5   L 809,503.5  z    M 811,503.5   L 812,503.5   L 812,504.5   L 811,504.5   L 811,503.5  z    M 813,503.5   L 814,503.5   L 814,504.5   L 813,504.5   L 813,503.5  z    M 815,503.5   L 816,503.5   L 816,504.5   L 815,504.5   L 815,503.5  z    M 817,503.5   L 818,503.5   L 818,504.5   L 817,504.5   L 817,503.5  z    M 819,503.5   L 820,503.5   L 820,504.5   L 819,504.5   L 819,503.5  z    M 821,503.5   L 822,503.5   L 822,504.5   L 821,504.5   L 821,503.5  z    M 823,503.5   L 824,503.5   L 824,504.5   L 823,504.5   L 823,503.5  z    M 825,503.5   L 826,503.5   L 826,504.5   L 825,504.5   L 825,503.5  z    M 827,503.5   L 828,503.5   L 828,504.5   L 827,504.5   L 827,503.5  z    M 829,503.5   L 830,503.5   L 830,504.5   L 829,504.5   L 829,503.5  z    M 831,503.5   L 832,503.5   L 832,504.5   L 831,504.5   L 831,503.5  z    M 833,503.5   L 834,503.5   L 834,504.5   L 833,504.5   L 833,503.5  z    M 835,503.5   L 836,503.5   L 836,504.5   L 835,504.5   L 835,503.5  z    M 837,503.5   L 838,503.5   L 838,504.5   L 837,504.5   L 837,503.5  z    M 839,503.5   L 840,503.5   L 840,504.5   L 839,504.5   L 839,503.5  z    M 841,503.5   L 842,503.5   L 842,504.5   L 841,504.5   L 841,503.5  z    M 843,503.5   L 844,503.5   L 844,504.5   L 843,504.5   L 843,503.5  z    M 845,503.5   L 846,503.5   L 846,504.5   L 845,504.5   L 845,503.5  z    M 847,503.5   L 848,503.5   L 848,504.5   L 847,504.5   L 847,503.5  z    M 849,503.5   L 850,503.5   L 850,504.5   L 849,504.5   L 849,503.5  z    M 851,503.5   L 852,503.5   L 852,504.5   L 851,504.5   L 851,503.5  z    M 853,503.5   L 854,503.5   L 854,504.5   L 853,504.5   L 853,503.5  z    M 855,503.5   L 856,503.5   L 856,504.5   L 855,504.5   L 855,503.5  z    M 857,503.5   L 858,503.5   L 858,504.5   L 857,504.5   L 857,503.5  z    M 859,503.5   L 860,503.5   L 860,504.5   L 859,504.5   L 859,503.5  z    M 861,503.5   L 862,503.5   L 862,504.5   L 861,504.5   L 861,503.5  z    M 863,503.5   L 864,503.5   L 864,504.5   L 863,504.5   L 863,503.5  z    M 865,503.5   L 866,503.5   L 866,504.5   L 865,504.5   L 865,503.5  z    M 867,503.5   L 868,503.5   L 868,504.5   L 867,504.5   L 867,503.5  z    M 869,503.5   L 870,503.5   L 870,504.5   L 869,504.5   L 869,503.5  z    M 871,503.5   L 872,503.5   L 872,504.5   L 871,504.5   L 871,503.5  z    M 873,503.5   L 874,503.5   L 874,504.5   L 873,504.5   L 873,503.5  z    M 875,503.5   L 876,503.5   L 876,504.5   L 875,504.5   L 875,503.5  z    M 877,503.5   L 878,503.5   L 878,504.5   L 877,504.5   L 877,503.5  z    M 879,503.5   L 880,503.5   L 880,504.5   L 879,504.5   L 879,503.5  z    M 881,503.5   L 882,503.5   L 882,504.5   L 881,504.5   L 881,503.5  z    M 883,503.5   L 884,503.5   L 884,504.5   L 883,504.5   L 883,503.5  z    M 885,503.5   L 886,503.5   L 886,504.5   L 885,504.5   L 885,503.5  z    M 887,503.5   L 888,503.5   L 888,504.5   L 887,504.5   L 887,503.5  z    M 889,503.5   L 890,503.5   L 890,504.5   L 889,504.5   L 889,503.5  z    M 891,503.5   L 892,503.5   L 892,504.5   L 891,504.5   L 891,503.5  z    M 893,503.5   L 894,503.5   L 894,504.5   L 893,504.5   L 893,503.5  z    M 895,503.5   L 896,503.5   L 896,504.5   L 895,504.5   L 895,503.5  z    M 897,503.5   L 898,503.5   L 898,504.5   L 897,504.5   L 897,503.5  z    M 899,503.5   L 900,503.5   L 900,504.5   L 899,504.5   L 899,503.5  z    M 901,503.5   L 902,503.5   L 902,504.5   L 901,504.5   L 901,503.5  z    M 903,503.5   L 904,503.5   L 904,504.5   L 903,504.5   L 903,503.5  z    M 905,503.5   L 906,503.5   L 906,504.5   L 905,504.5   L 905,503.5  z    M 907,503.5   L 908,503.5   L 908,504.5   L 907,504.5   L 907,503.5  z    M 909,503.5   L 910,503.5   L 910,504.5   L 909,504.5   L 909,503.5  z    M 911,503.5   L 912,503.5   L 912,504.5   L 911,504.5   L 911,503.5  z    M 913,503.5   L 914,503.5   L 914,504.5   L 913,504.5   L 913,503.5  z    M 915,503.5   L 916,503.5   L 916,504.5   L 915,504.5   L 915,503.5  z    M 917,503.5   L 918,503.5   L 918,504.5   L 917,504.5   L 917,503.5  z    M 919,503.5   L 920,503.5   L 920,504.5   L 919,504.5   L 919,503.5  z    M 921,503.5   L 922,503.5   L 922,504.5   L 921,504.5   L 921,503.5  z    M 923,503.5   L 924,503.5   L 924,504.5   L 923,504.5   L 923,503.5  z    M 925,503.5   L 926,503.5   L 926,504.5   L 925,504.5   L 925,503.5  z    M 927,503.5   L 928,503.5   L 928,504.5   L 927,504.5   L 927,503.5  z    M 929,503.5   L 930,503.5   L 930,504.5   L 929,504.5   L 929,503.5  z    M 931,503.5   L 932,503.5   L 932,504.5   L 931,504.5   L 931,503.5  z    M 933,503.5   L 934,503.5   L 934,504.5   L 933,504.5   L 933,503.5  z    M 935,503.5   L 936,503.5   L 936,504.5   L 935,504.5   L 935,503.5  z    M 937,503.5   L 938,503.5   L 938,504.5   L 937,504.5   L 937,503.5  z    M 939,503.5   L 940,503.5   L 940,504.5   L 939,504.5   L 939,503.5  z    M 941,503.5   L 942,503.5   L 942,504.5   L 941,504.5   L 941,503.5  z    M 943,503.5   L 944,503.5   L 944,504.5   L 943,504.5   L 943,503.5  z    M 945,503.5   L 946,503.5   L 946,504.5   L 945,504.5   L 945,503.5  z    M 947,503.5   L 948,503.5   L 948,504.5   L 947,504.5   L 947,503.5  z    M 949,503.5   L 950,503.5   L 950,504.5   L 949,504.5   L 949,503.5  z    M 951,503.5   L 952,503.5   L 952,504.5   L 951,504.5   L 951,503.5  z    M 953,503.5   L 954,503.5   L 954,504.5   L 953,504.5   L 953,503.5  z    M 955,503.5   L 956,503.5   L 956,504.5   L 955,504.5   L 955,503.5  z    M 957,503.5   L 958,503.5   L 958,504.5   L 957,504.5   L 957,503.5  z    M 959,503.5   L 960,503.5   L 960,504.5   L 959,504.5   L 959,503.5  z    M 961,503.5   L 962,503.5   L 962,504.5   L 961,504.5   L 961,503.5  z    M 963,503.5   L 964,503.5   L 964,504.5   L 963,504.5   L 963,503.5  z    M 965,503.5   L 966,503.5   L 966,504.5   L 965,504.5   L 965,503.5  z    M 967,503.5   L 968,503.5   L 968,504.5   L 967,504.5   L 967,503.5  z    M 969,503.5   L 970,503.5   L 970,504.5   L 969,504.5   L 969,503.5  z    M 971,503.5   L 972,503.5   L 972,504.5   L 971,504.5   L 971,503.5  z    M 973,503.5   L 974,503.5   L 974,504.5   L 973,504.5   L 973,503.5  z    M 975,503.5   L 976,503.5   L 976,504.5   L 975,504.5   L 975,503.5  z    M 977,503.5   L 978,503.5   L 978,504.5   L 977,504.5   L 977,503.5  z    M 979,503.5   L 980,503.5   L 980,504.5   L 979,504.5   L 979,503.5  z    M 981,503.5   L 982,503.5   L 982,504.5   L 981,504.5   L 981,503.5  z    M 983,503.5   L 984,503.5   L 984,504.5   L 983,504.5   L 983,503.5  z    M 985,503.5   L 986,503.5   L 986,504.5   L 985,504.5   L 985,503.5  z    M 987,503.5   L 988,503.5   L 988,504.5   L 987,504.5   L 987,503.5  z    M 989,503.5   L 990,503.5   L 990,504.5   L 989,504.5   L 989,503.5  z    M 991,503.5   L 992,503.5   L 992,504.5   L 991,504.5   L 991,503.5  z    M 993,503.5   L 994,503.5   L 994,504.5   L 993,504.5   L 993,503.5  z    M 995,503.5   L 996,503.5   L 996,504.5   L 995,504.5   L 995,503.5  z    M 997,503.5   L 998,503.5   L 998,504.5   L 997,504.5   L 997,503.5  z    M 999,503.5   L 1000,503.5   L 1000,504.5   L 999,504.5   L 999,503.5  z    M 1001,503.5   L 1002,503.5   L 1002,504.5   L 1001,504.5   L 1001,503.5  z    M 1003,503.5   L 1004,503.5   L 1004,504.5   L 1003,504.5   L 1003,503.5  z    M 1005,503.5   L 1006,503.5   L 1006,504.5   L 1005,504.5   L 1005,503.5  z    M 1007,503.5   L 1008,503.5   L 1008,504.5   L 1007,504.5   L 1007,503.5  z    M 1009,503.5   L 1010,503.5   L 1010,504.5   L 1009,504.5   L 1009,503.5  z    M 1011,503.5   L 1012,503.5   L 1012,504.5   L 1011,504.5   L 1011,503.5  z    M 1013,503.5   L 1014,503.5   L 1014,504.5   L 1013,504.5   L 1013,503.5  z    M 1015,503.5   L 1016,503.5   L 1016,504.5   L 1015,504.5   L 1015,503.5  z    M 1017,503.5   L 1018,503.5   L 1018,504.5   L 1017,504.5   L 1017,503.5  z    M 1019,503.5   L 1020,503.5   L 1020,504.5   L 1019,504.5   L 1019,503.5  z    M 1021,503.5   L 1022,503.5   L 1022,504.5   L 1021,504.5   L 1021,503.5  z    M 1023,503.5   L 1024,503.5   L 1024,504.5   L 1023,504.5   L 1023,503.5  z    M 1025,503.5   L 1026,503.5   L 1026,504.5   L 1025,504.5   L 1025,503.5  z    M 1027,503.5   L 1028,503.5   L 1028,504.5   L 1027,504.5   L 1027,503.5  z    M 1029,503.5   L 1030,503.5   L 1030,504.5   L 1029,504.5   L 1029,503.5  z    M 1031,503.5   L 1032,503.5   L 1032,504.5   L 1031,504.5   L 1031,503.5  z    M 1033,503.5   L 1034,503.5   L 1034,504.5   L 1033,504.5   L 1033,503.5  z    M 1035,503.5   L 1036,503.5   L 1036,504.5   L 1035,504.5   L 1035,503.5  z    M 1037,503.5   L 1038,503.5   L 1038,504.5   L 1037,504.5   L 1037,503.5  z    M 1039,503.5   L 1040,503.5   L 1040,504.5   L 1039,504.5   L 1039,503.5  z    M 1041,503.5   L 1042,503.5   L 1042,504.5   L 1041,504.5   L 1041,503.5  z    M 1043,503.5   L 1044,503.5   L 1044,504.5   L 1043,504.5   L 1043,503.5  z    M 1045,503.5   L 1046,503.5   L 1046,504.5   L 1045,504.5   L 1045,503.5  z   "
     clip-path="url(#clipEmfPath4)"
     style="fill:#cbcbcb;fill-rule:nonzero;fill-opacity:1;stroke:none;" />
  <path
     id="path154"
     d="  M 906,119   L 906,504   L 1026,504   L 1026,119   L 906,119   z "
     style="fill:#edc948;fill-rule:evenodd;fill-opacity:1;stroke:none;" />
  <path
     id="path156"
     d="  M 745,167   L 745,504   L 865,504   L 865,167   L 745,167   z "
     style="fill:#59a14f;fill-rule:evenodd;fill-opacity:1;stroke:none;" />
  <path
     id="path158"
     d="  M 585,183   L 585,504   L 705,504   L 705,183   L 585,183   z "
     style="fill:#76b7b2;fill-rule:evenodd;fill-opacity:1;stroke:none;" />
  <path
     id="path160"
     d="  M 424,151   L 424,504   L 544,504   L 544,151   L 424,151   z "
     style="fill:#e15759;fill-rule:evenodd;fill-opacity:1;stroke:none;" />
  <path
     id="path162"
     d="  M 264,167   L 264,504   L 384,504   L 384,167   L 264,167   z "
     style="fill:#f28e2b;fill-rule:evenodd;fill-opacity:1;stroke:none;" />
  <path
     id="path164"
     d="  M 103,231   L 103,504   L 223,504   L 223,231   L 103,231   z "
     style="fill:#4e79a7;fill-rule:evenodd;fill-opacity:1;stroke:none;" />
  <text
     id="text170"
     y="0.000000"
     x="0.000000"
     transform="matrix(1.000000,-0.000000,0.000000,1.000000,145.000000,224.000000)"
     style="font-size:20.000000px;font-style:normal;font-variant:normal;font-weight:700;font-stretch:Normal;line-height:125.000000%;letter-spacing:0px;word-spacing:0px;fill:#000000;fill-opacity:1;stroke:none;font-family:Microsoft Sans Serif;text-align:start;text-anchor:start;"
     xml:space="preserve"><tspan
       id="tspan168"
       y="0.000000"
       x="0.000000"><tspan
         id="tspan166"
         style="fill:#000000;font-size:20.000000px;font-style:normal;font-variant:normal;font-weight:700;font-stretch:Normal;font-family:Microsoft Sans Serif;"
         dy="0.000000"
         dx="0.000000">187</tspan></tspan></text>
  <text
     id="text176"
     y="-64.000000"
     x="161.000000"
     transform="matrix(1.000000,-0.000000,0.000000,1.000000,145.000000,224.000000)"
     style="font-size:20.000000px;font-style:normal;font-variant:normal;font-weight:700;font-stretch:Normal;line-height:125.000000%;letter-spacing:0px;word-spacing:0px;fill:#000000;fill-opacity:1;stroke:none;font-family:Microsoft Sans Serif;text-align:start;text-anchor:start;"
     xml:space="preserve"><tspan
       id="tspan174"
       y="-64.000000"
       x="161.000000"><tspan
         id="tspan172"
         style="fill:#000000;font-size:20.000000px;font-style:normal;font-variant:normal;font-weight:700;font-stretch:Normal;font-family:Microsoft Sans Serif;"
         dy="0.000000"
         dx="0.000000">231</tspan></tspan></text>
  <text
     id="text182"
     y="-80.000000"
     x="321.000000"
     transform="matrix(1.000000,-0.000000,0.000000,1.000000,145.000000,224.000000)"
     style="font-size:20.000000px;font-style:normal;font-variant:normal;font-weight:700;font-stretch:Normal;line-height:125.000000%;letter-spacing:0px;word-spacing:0px;fill:#000000;fill-opacity:1;stroke:none;font-family:Microsoft Sans Serif;text-align:start;text-anchor:start;"
     xml:space="preserve"><tspan
       id="tspan180"
       y="-80.000000"
       x="321.000000"><tspan
         id="tspan178"
         style="fill:#000000;font-size:20.000000px;font-style:normal;font-variant:normal;font-weight:700;font-stretch:Normal;font-family:Microsoft Sans Serif;"
         dy="0.000000"
         dx="0.000000">242</tspan></tspan></text>
  <text
     id="text188"
     y="-48.000000"
     x="482.000000"
     transform="matrix(1.000000,-0.000000,0.000000,1.000000,145.000000,224.000000)"
     style="font-size:20.000000px;font-style:normal;font-variant:normal;font-weight:700;font-stretch:Normal;line-height:125.000000%;letter-spacing:0px;word-spacing:0px;fill:#000000;fill-opacity:1;stroke:none;font-family:Microsoft Sans Serif;text-align:start;text-anchor:start;"
     xml:space="preserve"><tspan
       id="tspan186"
       y="-48.000000"
       x="482.000000"><tspan
         id="tspan184"
         style="fill:#000000;font-size:20.000000px;font-style:normal;font-variant:normal;font-weight:700;font-stretch:Normal;font-family:Microsoft Sans Serif;"
         dy="0.000000"
         dx="0.000000">220</tspan></tspan></text>
  <text
     id="text194"
     y="-64.000000"
     x="642.000000"
     transform="matrix(1.000000,-0.000000,0.000000,1.000000,145.000000,224.000000)"
     style="font-size:20.000000px;font-style:normal;font-variant:normal;font-weight:700;font-stretch:Normal;line-height:125.000000%;letter-spacing:0px;word-spacing:0px;fill:#000000;fill-opacity:1;stroke:none;font-family:Microsoft Sans Serif;text-align:start;text-anchor:start;"
     xml:space="preserve"><tspan
       id="tspan192"
       y="-64.000000"
       x="642.000000"><tspan
         id="tspan190"
         style="fill:#000000;font-size:20.000000px;font-style:normal;font-variant:normal;font-weight:700;font-stretch:Normal;font-family:Microsoft Sans Serif;"
         dy="0.000000"
         dx="0.000000">231</tspan></tspan></text>
  <text
     id="text200"
     y="-112.000000"
     x="803.000000"
     transform="matrix(1.000000,-0.000000,0.000000,1.000000,145.000000,224.000000)"
     style="font-size:20.000000px;font-style:normal;font-variant:normal;font-weight:700;font-stretch:Normal;line-height:125.000000%;letter-spacing:0px;word-spacing:0px;fill:#000000;fill-opacity:1;stroke:none;font-family:Microsoft Sans Serif;text-align:start;text-anchor:start;"
     xml:space="preserve"><tspan
       id="tspan198"
       y="-112.000000"
       x="803.000000"><tspan
         id="tspan196"
         style="fill:#000000;font-size:20.000000px;font-style:normal;font-variant:normal;font-weight:700;font-stretch:Normal;font-family:Microsoft Sans Serif;"
         dy="0.000000"
         dx="0.000000">264</tspan></tspan></text>
  <path
     id="path202"
     d="  M 83,504   L 1046,504  "
     clip-path="url(#clipEmfPath5)"
     style="fill:none;stroke:#f5f5f5;stroke-width:1px;stroke-linecap:square;stroke-linejoin:bevel;stroke-miterlimit:10;stroke-dasharray:none;stroke-opacity:1;" />
  <path
     id="path204"
     d="  M 83,72   L 83,504  "
     clip-path="url(#clipEmfPath5)"
     style="fill:none;stroke:#f5f5f5;stroke-width:1px;stroke-linecap:square;stroke-linejoin:bevel;stroke-miterlimit:10;stroke-dasharray:none;stroke-opacity:1;" />
  <text
     id="text210"
     y="0.000000"
     x="0.000000"
     transform="matrix(1.000000,-0.000000,0.000000,1.000000,4.000000,34.000000)"
     style="font-size:27.000000px;font-style:normal;font-variant:normal;font-weight:700;font-stretch:Normal;line-height:125.000000%;letter-spacing:0px;word-spacing:0px;fill:#000000;fill-opacity:1;stroke:none;font-family:Microsoft Sans Serif;text-align:start;text-anchor:start;"
     xml:space="preserve"><tspan
       id="tspan208"
       y="0.000000"
       x="0.000000"><tspan
         id="tspan206"
         style="fill:#000000;font-size:27.000000px;font-style:normal;font-variant:normal;font-weight:700;font-stretch:Normal;font-family:Microsoft Sans Serif;"
         dy="0.000000"
         dx="0.000000">Region by Voltage(in Millions)</tspan></tspan></text>
  <path
     id="path212"
     d="  M 1056,52   L 1056,187   L 1198,187   L 1198,52   L 1056,52   z "
     style="fill:#ffffff;fill-rule:evenodd;fill-opacity:1;stroke:none;" />
  <text
     id="text218"
     y="0.000000"
     x="0.000000"
     transform="matrix(1.000000,-0.000000,0.000000,1.000000,1057.000000,65.000000)"
     style="font-size:12.000000px;font-style:normal;font-variant:normal;font-weight:400;font-stretch:Normal;line-height:125.000000%;letter-spacing:0px;word-spacing:0px;fill:#000000;fill-opacity:1;stroke:none;font-family:Microsoft Sans Serif;text-align:start;text-anchor:start;"
     xml:space="preserve"><tspan
       id="tspan216"
       y="0.000000"
       x="0.000000"><tspan
         id="tspan214"
         style="fill:#000000;font-size:12.000000px;font-style:normal;font-variant:normal;font-weight:400;font-stretch:Normal;font-family:Microsoft Sans Serif;"
         dy="0.000000"
         dx="0.000000">Region</tspan></tspan></text>
  <path
     id="path220"
     d="  M 1059,70   L 1059,84   L 1073,84   L 1073,70   L 1059,70   z "
     style="fill:#ffffff;fill-rule:evenodd;fill-opacity:1;stroke:none;" />
  <path
     id="path222"
     d="  M 1059,70   L 1059,84   L 1073,84   L 1073,70   L 1059,70   z "
     style="fill:#4e79a7;fill-rule:evenodd;fill-opacity:1;stroke:none;" />
  <text
     id="text228"
     y="0.000000"
     x="0.000000"
     transform="matrix(1.000000,-0.000000,0.000000,1.000000,1078.000000,81.000000)"
     style="font-size:12.000000px;font-style:normal;font-variant:normal;font-weight:400;font-stretch:Normal;line-height:125.000000%;letter-spacing:0px;word-spacing:0px;fill:#000000;fill-opacity:1;stroke:none;font-family:Microsoft Sans Serif;text-align:start;text-anchor:start;"
     xml:space="preserve"><tspan
       id="tspan226"
       y="0.000000"
       x="0.000000"><tspan
         id="tspan224"
         style="fill:#000000;font-size:12.000000px;font-style:normal;font-variant:normal;font-weight:400;font-stretch:Normal;font-family:Microsoft Sans Serif;"
         dy="0.000000"
         dx="0.000000">Ashanti Region</tspan></tspan></text>
  <path
     id="path230"
     d="  M 1059,90   L 1059,104   L 1073,104   L 1073,90   L 1059,90   z "
     style="fill:#ffffff;fill-rule:evenodd;fill-opacity:1;stroke:none;" />
  <path
     id="path232"
     d="  M 1059,90   L 1059,104   L 1073,104   L 1073,90   L 1059,90   z "
     style="fill:#f28e2b;fill-rule:evenodd;fill-opacity:1;stroke:none;" />
  <text
     id="text238"
     y="0.000000"
     x="0.000000"
     transform="matrix(1.000000,-0.000000,0.000000,1.000000,1078.000000,101.000000)"
     style="font-size:12.000000px;font-style:normal;font-variant:normal;font-weight:400;font-stretch:Normal;line-height:125.000000%;letter-spacing:0px;word-spacing:0px;fill:#000000;fill-opacity:1;stroke:none;font-family:Microsoft Sans Serif;text-align:start;text-anchor:start;"
     xml:space="preserve"><tspan
       id="tspan236"
       y="0.000000"
       x="0.000000"><tspan
         id="tspan234"
         style="fill:#000000;font-size:12.000000px;font-style:normal;font-variant:normal;font-weight:400;font-stretch:Normal;font-family:Microsoft Sans Serif;"
         dy="0.000000"
         dx="0.000000">Central Region</tspan></tspan></text>
  <path
     id="path240"
     d="  M 1059,110   L 1059,124   L 1073,124   L 1073,110   L 1059,110   z "
     style="fill:#ffffff;fill-rule:evenodd;fill-opacity:1;stroke:none;" />
  <path
     id="path242"
     d="  M 1059,110   L 1059,124   L 1073,124   L 1073,110   L 1059,110   z "
     style="fill:#e15759;fill-rule:evenodd;fill-opacity:1;stroke:none;" />
  <text
     id="text248"
     y="0.000000"
     x="0.000000"
     transform="matrix(1.000000,-0.000000,0.000000,1.000000,1078.000000,121.000000)"
     style="font-size:12.000000px;font-style:normal;font-variant:normal;font-weight:400;font-stretch:Normal;line-height:125.000000%;letter-spacing:0px;word-spacing:0px;fill:#000000;fill-opacity:1;stroke:none;font-family:Microsoft Sans Serif;text-align:start;text-anchor:start;"
     xml:space="preserve"><tspan
       id="tspan246"
       y="0.000000"
       x="0.000000"><tspan
         id="tspan244"
         style="fill:#000000;font-size:12.000000px;font-style:normal;font-variant:normal;font-weight:400;font-stretch:Normal;font-family:Microsoft Sans Serif;"
         dy="0.000000"
         dx="0.000000">Eastern Region</tspan></tspan></text>
  <path
     id="path250"
     d="  M 1059,130   L 1059,144   L 1073,144   L 1073,130   L 1059,130   z "
     style="fill:#ffffff;fill-rule:evenodd;fill-opacity:1;stroke:none;" />
  <path
     id="path252"
     d="  M 1059,130   L 1059,144   L 1073,144   L 1073,130   L 1059,130   z "
     style="fill:#76b7b2;fill-rule:evenodd;fill-opacity:1;stroke:none;" />
  <text
     id="text258"
     y="0.000000"
     x="0.000000"
     transform="matrix(1.000000,-0.000000,0.000000,1.000000,1078.000000,141.000000)"
     style="font-size:12.000000px;font-style:normal;font-variant:normal;font-weight:400;font-stretch:Normal;line-height:125.000000%;letter-spacing:0px;word-spacing:0px;fill:#000000;fill-opacity:1;stroke:none;font-family:Microsoft Sans Serif;text-align:start;text-anchor:start;"
     xml:space="preserve"><tspan
       id="tspan256"
       y="0.000000"
       x="0.000000"><tspan
         id="tspan254"
         style="fill:#000000;font-size:12.000000px;font-style:normal;font-variant:normal;font-weight:400;font-stretch:Normal;font-family:Microsoft Sans Serif;"
         dy="0.000000"
         dx="0.000000">Greater Accra Region</tspan></tspan></text>
  <path
     id="path260"
     d="  M 1059,150   L 1059,164   L 1073,164   L 1073,150   L 1059,150   z "
     style="fill:#ffffff;fill-rule:evenodd;fill-opacity:1;stroke:none;" />
  <path
     id="path262"
     d="  M 1059,150   L 1059,164   L 1073,164   L 1073,150   L 1059,150   z "
     style="fill:#59a14f;fill-rule:evenodd;fill-opacity:1;stroke:none;" />
  <text
     id="text268"
     y="0.000000"
     x="0.000000"
     transform="matrix(1.000000,-0.000000,0.000000,1.000000,1078.000000,161.000000)"
     style="font-size:12.000000px;font-style:normal;font-variant:normal;font-weight:400;font-stretch:Normal;line-height:125.000000%;letter-spacing:0px;word-spacing:0px;fill:#000000;fill-opacity:1;stroke:none;font-family:Microsoft Sans Serif;text-align:start;text-anchor:start;"
     xml:space="preserve"><tspan
       id="tspan266"
       y="0.000000"
       x="0.000000"><tspan
         id="tspan264"
         style="fill:#000000;font-size:12.000000px;font-style:normal;font-variant:normal;font-weight:400;font-stretch:Normal;font-family:Microsoft Sans Serif;"
         dy="0.000000"
         dx="0.000000">Volta Region</tspan></tspan></text>
  <path
     id="path270"
     d="  M 1059,170   L 1059,184   L 1073,184   L 1073,170   L 1059,170   z "
     style="fill:#ffffff;fill-rule:evenodd;fill-opacity:1;stroke:none;" />
  <path
     id="path272"
     d="  M 1059,170   L 1059,184   L 1073,184   L 1073,170   L 1059,170   z "
     style="fill:#edc948;fill-rule:evenodd;fill-opacity:1;stroke:none;" />
  <text
     id="text278"
     y="0.000000"
     x="0.000000"
     transform="matrix(1.000000,-0.000000,0.000000,1.000000,1078.000000,181.000000)"
     style="font-size:12.000000px;font-style:normal;font-variant:normal;font-weight:400;font-stretch:Normal;line-height:125.000000%;letter-spacing:0px;word-spacing:0px;fill:#000000;fill-opacity:1;stroke:none;font-family:Microsoft Sans Serif;text-align:start;text-anchor:start;"
     xml:space="preserve"><tspan
       id="tspan276"
       y="0.000000"
       x="0.000000"><tspan
         id="tspan274"
         style="fill:#000000;font-size:12.000000px;font-style:normal;font-variant:normal;font-weight:400;font-stretch:Normal;font-family:Microsoft Sans Serif;"
         dy="0.000000"
         dx="0.000000">Western Region</tspan></tspan></text>
  <text
     id="text284"
     y="382.000000"
     x="-1078.000000"
     transform="matrix(1.000000,-0.000000,0.000000,1.000000,1078.000000,181.000000)"
     style="font-size:12.000000px;font-style:normal;font-variant:normal;font-weight:400;font-stretch:Normal;line-height:125.000000%;letter-spacing:0px;word-spacing:0px;fill:#000000;fill-opacity:1;stroke:none;font-family:Microsoft Sans Serif;text-align:start;text-anchor:start;"
     xml:space="preserve"><tspan
       id="tspan282"
       y="382.000000"
       x="-1078.000000"><tspan
         id="tspan280"
         style="fill:#000000;font-size:12.000000px;font-style:normal;font-variant:normal;font-weight:400;font-stretch:Normal;font-family:Microsoft Sans Serif;"
         dy="0.000000"
         dx="0.000000">Sum of Hv Voltage for each Region.  Color shows details about Region.  The marks are labeled by sum of Hv Voltage.</tspan></tspan></text>
</svg>
